<?xml version="1.0" encoding="UTF-8"?>
<svg width="50px" height="50px" viewBox="0 0 50 50" version="1.1" xmlns="http://www.w3.org/2000/svg" xmlns:xlink="http://www.w3.org/1999/xlink">
    <title>Icon-search-white-50px</title>
    <defs>
        <polygon id="path-1" points="0 0 50 0 50 50 0 50"></polygon>
    </defs>
    <g id="Icon-search-white-50px" stroke="none" stroke-width="1" fill="none" fill-rule="evenodd">
        <g>
            <mask id="mask-2" fill="white">
                <use xlink:href="#path-1"></use>
            </mask>
            <g id="Clip-2"></g>
            <path d="M22.2200525,5.56693369 C13.0181732,5.56693369 5.55501312,13.0461091 5.55501312,22.2677348 C5.55501312,31.4921439 13.0181732,38.9685358 22.2200525,38.9685358 C31.4219317,38.9685358 38.8850918,31.4921439 38.8850918,22.2677348 C38.8850918,13.0461091 31.4219317,5.56693369 22.2200525,5.56693369 M22.2200525,0 C34.4910764,0 44.4401049,9.97037824 44.4401049,22.2677348 C44.4401049,27.4060145 42.7041633,32.1351247 39.7877815,35.9039388 L49.1785311,45.2396866 C50.2673137,46.3224552 50.2756462,48.0843897 49.1924187,49.1755087 C48.1980713,50.1859072 46.6204476,50.2666277 45.5288875,49.4232373 L45.2650244,49.1922095 L35.8603872,39.8453279 C32.0968658,42.7874523 27.3639946,44.5354695 22.2200525,44.5354695 C9.94902849,44.5354695 0,34.5650913 0,22.2677348 C0,9.97037824 9.94902849,0 22.2200525,0" id="Fill-1" fill="#FFFFFF" mask="url(#mask-2)"></path>
        </g>
    </g>
</svg>